<svg xmlns="http://www.w3.org/2000/svg" xmlns:xlink="http://www.w3.org/1999/xlink" fill="none" version="1.1" width="31.718393325805664" height="41.73125076293945" viewBox="0 0 31.718393325805664 41.73125076293945"><g><path d="M5.3625007,28.213282C5.3023438,28.462498,5.2679691,28.608591,4.9242187,28.522657L1.0054688,27.542969L0,31.582029L7.227344,33.386719L5.7664065,39.256245L9.625001,40.21875L11.085938,34.34922L13.483594,34.950779L12.022656,40.811718L15.692189,41.731251L17.16172,35.861717L19.920313,36.557808C21.759375,37.013279,28.728907,37.099216,30.232815,31.006252C31.22518,27.651783,29.776079,24.055729,26.735159,22.326563C26.735159,22.326563,31.032034,21.011719,31.633596,17.075779C32.235157,13.139844,29.493753,11.309374,27.903906,10.303905C26.653315,9.5815563,25.324074,9.0048771,23.942186,8.5851555L25.471876,2.4492188L21.939844,1.5898436L20.427345,7.6914067L17.591408,6.9867187L19.138283,0.85937494L15.563281,0L14.033596,6.1273437L6.5570316,4.2624993L5.6460938,7.8718743L9.7453127,8.8945312C10.157813,8.9976549,10.106251,9.2039051,10.071875,9.3414059L5.3625007,28.213282ZM16.671877,10.621875L21.028908,11.713282C21.776562,11.902343,25.257032,13.432032,24.466406,16.517187C24.067585,18.277615,22.442574,19.482681,20.642189,19.353125C20.286936,19.352398,19.932711,19.31496,19.585159,19.241405L14.78125,18.03828L16.671877,10.621875ZM13.913281,21.905468L20.719532,23.624218C22.790533,24.182373,23.968185,26.364954,23.297659,28.402344C22.687502,30.860157,20.272655,31.40156,19.078125,31.40156C18.901894,31.406944,18.725706,31.389614,18.553905,31.350002L11.979688,29.717186L13.913281,21.905468Z" fill="#5A4015" fill-opacity="1" style="mix-blend-mode:passthrough"/></g></svg>