<svg xmlns="http://www.w3.org/2000/svg" xmlns:xlink="http://www.w3.org/1999/xlink" fill="none" version="1.1" width="61" height="50.999755859375" viewBox="0 0 61 50.999755859375"><defs><linearGradient x1="0.19240973889827728" y1="0.1372157335281372" x2="0.7256426150485144" y2="1.0841256696933956" id="master_svg0_606_37773"><stop offset="0%" stop-color="#FF804D" stop-opacity="1"/><stop offset="100%" stop-color="#FFEFBA" stop-opacity="1"/></linearGradient><linearGradient x1="0.5021402835845947" y1="0.01593017764389515" x2="0.5002185524634503" y2="1.000000426797854" id="master_svg1_606_37760"><stop offset="0%" stop-color="#FEF2C2" stop-opacity="1"/><stop offset="14.945778250694275%" stop-color="#FFD06C" stop-opacity="1"/><stop offset="50.00001788139343%" stop-color="#FFF99A" stop-opacity="1"/><stop offset="77.82745361328125%" stop-color="#F5B55A" stop-opacity="1"/><stop offset="100%" stop-color="#FFBF5D" stop-opacity="1"/></linearGradient><linearGradient x1="1" y1="0.5698085427284241" x2="0.033877075873507266" y2="0.6568416728052342" id="master_svg2_606_37720"><stop offset="0%" stop-color="#FFCF72" stop-opacity="1"/><stop offset="99.99984502792358%" stop-color="#FFDA73" stop-opacity="1"/></linearGradient><linearGradient x1="1" y1="0.5698085427284241" x2="0.03542491258667891" y2="0.6706478546726518" id="master_svg3_606_37751"><stop offset="0%" stop-color="#FF833A" stop-opacity="1"/><stop offset="99.99984502792358%" stop-color="#FFDA73" stop-opacity="1"/></linearGradient><linearGradient x1="0.4108355939388275" y1="0.11440909653902054" x2="0.42681601675127984" y2="0.7164514740532865" id="master_svg4_606_37754"><stop offset="0%" stop-color="#FFFEEE" stop-opacity="1"/><stop offset="99.9998390674591%" stop-color="#FFFB8F" stop-opacity="1"/></linearGradient><linearGradient x1="0.17722059786319733" y1="0.957522988319397" x2="1.1253219104563588" y2="0.5935167483724859" id="master_svg5_606_37766"><stop offset="0%" stop-color="#FF7030" stop-opacity="1"/><stop offset="100%" stop-color="#FF9F63" stop-opacity="1"/></linearGradient><linearGradient x1="0.17722059786319733" y1="0.957522988319397" x2="1.1310532754328646" y2="0.5271629987045476" id="master_svg6_606_37757"><stop offset="0%" stop-color="#FF8841" stop-opacity="1"/><stop offset="100%" stop-color="#FFDC7E" stop-opacity="1"/></linearGradient><linearGradient x1="0.29481565952301025" y1="0.03493907302618027" x2="0.8546445058172268" y2="0.8865531815529414" id="master_svg7_606_37717"><stop offset="0%" stop-color="#FFCF72" stop-opacity="1"/><stop offset="99.99995827674866%" stop-color="#FFA15A" stop-opacity="1"/></linearGradient><linearGradient x1="0.5902748107910156" y1="0.4390558898448944" x2="0.2012147197846182" y2="0.7603729719682699" id="master_svg8_606_37745"><stop offset="0%" stop-color="#FF7F4D" stop-opacity="1"/><stop offset="99.99989867210388%" stop-color="#FFA446" stop-opacity="1"/></linearGradient><linearGradient x1="0.763924241065979" y1="0.04273437336087227" x2="0.6805956434536579" y2="0.9966000562065754" id="master_svg9_606_37726"><stop offset="0%" stop-color="#FFF0CA" stop-opacity="1"/><stop offset="34.24657583236694%" stop-color="#FFE9AD" stop-opacity="1"/><stop offset="70.54794430732727%" stop-color="#EDAA4E" stop-opacity="1"/><stop offset="100%" stop-color="#F86748" stop-opacity="1"/></linearGradient><linearGradient x1="0.12436416745185852" y1="0.0408204048871994" x2="1.1257562469602493" y2="0.8088633688571223" id="master_svga_606_37723"><stop offset="0%" stop-color="#FFCF72" stop-opacity="1"/><stop offset="100%" stop-color="#FEBB6D" stop-opacity="1"/></linearGradient><linearGradient x1="0.7193063497543335" y1="0.0053459275513887405" x2="0.2571047648960727" y2="0.8701884305796056" id="master_svgb_606_37748"><stop offset="0%" stop-color="#FFDE80" stop-opacity="1"/><stop offset="100%" stop-color="#FFBC6D" stop-opacity="1"/></linearGradient><filter id="master_svgc_673_50961" filterUnits="objectBoundingBox" color-interpolation-filters="sRGB" x="-0.16326530612244897" y="-0.25" width="1.3265306122448979" height="1.6666666666666667"><feFlood flood-opacity="0" result="BackgroundImageFix"/><feColorMatrix in="SourceAlpha" type="matrix" values="0 0 0 0 0 0 0 0 0 0 0 0 0 0 0 0 0 0 127 0"/><feOffset dy="2" dx="0"/><feGaussianBlur stdDeviation="2"/><feColorMatrix type="matrix" values="0 0 0 0 0.3392857015132904 0 0 0 0 0.1957898885011673 0 0 0 0 0.06155183166265488 0 0 0 0.20000000298023224 0"/><feBlend mode="normal" in2="BackgroundImageFix" result="effect1_dropShadow"/><feBlend mode="normal" in="SourceGraphic" in2="effect1_dropShadow" result="shape"/></filter><linearGradient x1="0.3698481321334839" y1="-0.008056640625" x2="0.3159010681364835" y2="1.1205181577665375" id="master_svgd_673_46390"><stop offset="0%" stop-color="#F5FFA6" stop-opacity="1"/><stop offset="12.857143580913544%" stop-color="#FFE4A6" stop-opacity="1"/><stop offset="52.77110934257507%" stop-color="#FFB679" stop-opacity="1"/><stop offset="99.28570985794067%" stop-color="#FFA052" stop-opacity="1"/><stop offset="100%" stop-color="#FF856C" stop-opacity="1"/></linearGradient><filter id="master_svge_673_50960" filterUnits="objectBoundingBox" color-interpolation-filters="sRGB" x="-0.6204081898299629" y="-0.6210783205328507" width="2.240816379659926" height="2.2421566410657015"><feFlood flood-opacity="0" result="BackgroundImageFix"/><feColorMatrix in="SourceAlpha" type="matrix" values="0 0 0 0 0 0 0 0 0 0 0 0 0 0 0 0 0 0 127 0"/><feOffset dy="0" dx="0"/><feGaussianBlur stdDeviation="2"/><feColorMatrix type="matrix" values="0 0 0 0 0.1882352977991104 0 0 0 0 0.1921568661928177 0 0 0 0 0.20000000298023224 0 0 0 0.30000001192092896 0"/><feBlend mode="normal" in2="BackgroundImageFix" result="effect1_dropShadow"/><feBlend mode="normal" in="SourceGraphic" in2="effect1_dropShadow" result="shape"/></filter><linearGradient x1="0.7491170167922974" y1="0.931010901927948" x2="0.3063359424880591" y2="0.0003706696132443621" id="master_svgf_673_43559"><stop offset="6.88992440700531%" stop-color="#FDE1B3" stop-opacity="1"/><stop offset="100%" stop-color="#FFFEFD" stop-opacity="1"/></linearGradient><clipPath id="master_svgg_676_40983"><rect x="26" y="25" width="9" height="9" rx="0"/></clipPath></defs><g><g><g><g><path d="M17.76483234394873,3.2548465324890135Q17.48712904994873,4.778843132489014,18.68923192994873,5.933323432489014L21.78699210994873,5.979596632489014Q19.88576700994873,3.8420975324890136,21.04164430994873,1.1173111614890137C19.88576700994873,0.9326439624890137,19.19799280994873,1.2227425024890137,18.78177010994873,1.5460078424890136C18.36554759994873,1.8692729424890135,17.91748487994873,2.4171106324890137,17.76483234394873,3.2548465324890135Z" fill="#FFD06C" fill-opacity="1"/></g><g><path d="M18.186676663450914,3.463208707489014Q18.04809075945091,5.218156307489014,19.608342959450912,5.966733407489014L21.781392659450912,5.966733407489014Q19.931943059450912,4.027037107489013,20.810409859450914,1.5793476474890136C19.848615659450914,1.4285004474890137,19.318948359450914,1.7674836674890138,18.97261353945091,2.0315459074890136C18.62627878945091,2.2956082774890136,18.24144309045091,2.769628007489014,18.186676663450914,3.463208707489014Z" fill="url(#master_svg0_606_37773)" fill-opacity="1"/></g></g><g><path d="M20.407357477647096,2.8260753Q20.268641997647094,4.488656,21.609469797647094,5.966507L26.048036297647094,5.966507C25.215804297647097,5.6432276,24.614748697647094,4.1653771,24.476042997647095,3.5649998C24.337338197647096,2.9646235,24.347076897647096,1.981268,24.568513197647093,1.4405907Q24.984629397647094,0.42456859,25.933170597647095,0.013385969Q22.118477597647093,-0.040246021,21.742381097647094,0.12081341C21.366284547647094,0.28187284,20.546072957647095,1.1634939,20.407357477647096,2.8260753Z" fill="url(#master_svg1_606_37760)" fill-opacity="1"/></g><g><path d="M33.34754753112793,5.7019653625L37.22392223112793,5.8274764625Q37.59380293112793,4.7652714624999994,37.59380293112793,3.4259695625C37.59380293112793,2.0866683125,36.76157163112793,1.4401216095,35.92933993112793,1.3939260626Q35.09710853112793,1.3477305285,34.67710723112793,2.2195938225000003L33.34754753112793,5.7019653625Z" fill="url(#master_svg2_606_37720)" fill-opacity="1"/></g><g><path d="M33.366291999816895,5.7354001875L36.85404489981689,5.7354311875Q37.223925599816894,4.7194091875,37.177690299816895,3.3339253875C37.1314556998169,1.9484406675,35.513227199816896,1.4404296875,35.235816699816894,1.4404296875Q34.95840629981689,1.4404296875,34.475902399816896,2.3179148475L33.366291999816895,5.7354001875Z" fill="url(#master_svg3_606_37751)" fill-opacity="1"/></g><g><path d="M29.826313018798828,3.6115911125L30.70477962879883,4.627613312499999L35.14334771879883,1.3486328125L32.69288821879883,1.3486328125C32.41547751879883,1.3486328125,31.95312691879883,1.5795667125,31.537011218798828,1.9028266025Q31.12089521879883,2.2260866125,29.826313018798828,3.6115911125Z" fill="url(#master_svg4_606_37754)" fill-opacity="1"/></g><g><ellipse cx="30.011249661445618" cy="4.258086085319519" rx="1.6644631624221802" ry="1.154570460319519" fill="#FFDD67" fill-opacity="1"/></g><g><path d="M29.456430435180664,5.92016225L32.369241035180664,5.92016225L39.25826833518067,1.22491419Q39.468925435180665,1.10472989,39.47880843518067,0.96983576Q39.49929343518066,0.6902365100000001,38.657212235180666,0.347440608Q37.50133513518067,0.024149019999999993,36.410017535180664,0.81828082L29.456430435180664,5.92016225Z" fill="url(#master_svg5_606_37766)" fill-opacity="1"/></g><g><path d="M29.641371726989746,5.4119791625L30.473603306989745,5.4119791625Q36.410058526989744,0.8182430225,37.10852332698975,0.6035627125Q37.806988726989744,0.3888823225,38.24109652698975,0.2857064325C37.174383626989744,-0.012646687500000003,36.81645922698975,0.2003758885,36.331511026989745,0.4889981125C36.29097552698975,0.5131231525,36.24955272698975,0.5377764125,36.206754226989744,0.5627033725Q35.65193322698975,0.8858462025,29.641371726989746,5.4119791625Z" fill="url(#master_svg6_606_37757)" fill-opacity="1"/></g><g><path d="M24.37067699432373,2.114801375C24.37067699432373,2.715177775,24.46296656832373,3.084640475,24.64808750432373,3.454103275Q24.83320853432373,3.823565475,27.14478249432373,5.865620575L31.86076069432373,5.865620575Q27.33008359432373,0.756542865,26.96002249432373,0.405943725C26.58996109432373,0.055344656,25.98890509432373,-0.129270495,25.38784889432373,0.147818165C24.78679278432373,0.424906795,24.41673147632373,1.191144975,24.37067699432373,2.114801375Z" fill="url(#master_svg7_606_37717)" fill-opacity="1"/></g><g><path d="M24.786685943603516,2.4474255625000003C24.786685943603516,3.2787165625,24.862451225603515,3.5673587625,25.017861383603517,3.8790931625Q25.173271623603515,4.1908268625,27.069309443603515,5.8879237625L31.213309743603517,5.8879017625Q27.930618743603517,2.1703377625,27.144622043603515,1.3390562525C26.358625743603515,0.5077743865,26.127450343603517,0.4615502585,25.618864533603517,0.6000822485C25.110278483603516,0.7386142125,24.786685943603516,1.6161348625,24.786685943603516,2.4474255625000003Z" fill="url(#master_svg8_606_37745)" fill-opacity="1"/></g><g><path d="M30.47370433807373,5.96685935Q39.951896638073734,6.07455875,40.46048263807373,5.98219295C40.96906933807373,5.88982825,41.52388933807373,5.42799945,41.80130033807373,5.05853655C42.07871133807373,4.68907455,42.541060338073734,3.90396645,42.40235633807373,2.56466505C42.26365133807373,1.22536315,41.182144338073726,0.66082251,40.78412833807373,0.5788034799999999Q40.38611223807373,0.49678442,38.02207753807373,0.12109375Q40.32177643807373,1.73337395,39.99813273807373,3.53450445Q39.67448613807373,5.33563425,38.01002263807373,5.65891315L30.79734989807373,5.73594525L30.47370433807373,5.96685935Z" fill="url(#master_svg9_606_37726)" fill-opacity="1"/></g><g><path d="M24.53613346824707,1.087073775C24.16616436824707,1.964547275,24.28259319824707,3.139085275,24.46306404824707,3.750017375C24.64353489824707,4.360949475,25.01786219824707,5.966793075,26.12768222824707,5.966793075L31.07465692824707,5.966793075L31.30583432824707,5.735878475Q27.04762122824707,5.735834575,26.63147332824707,5.735826975C25.46183852824707,5.735826975,25.01963138824707,3.985259075,24.91217523824707,3.126537575C24.77889236824707,2.061424775,25.12714492824707,0.657713055,25.87933812824707,0.550372835L25.87933812824707,0.013671875Q24.90610271824707,0.209600215,24.53613346824707,1.087073775Z" fill="url(#master_svga_606_37723)" fill-opacity="1"/></g><g><path d="M31.028423309326172,5.966567769771195L38.287331109326175,6.012701269771195Q40.64532090932617,4.746477869771194,40.13673500932617,2.2989165697711944C39.628148109326176,-0.14864302022880554,37.66170790932617,0.06679342677119446,37.223925109326174,0.14747169977119445C36.78614090932617,0.22814996977119445,36.73241280932617,0.8185210497711944,36.94732520932617,0.6575107897711945C37.16223720932617,0.49650045977119445,38.38984920932617,0.48133053977119444,38.774079809326174,0.7648229897711945C39.15830990932617,1.0483155597711944,39.81308840932617,1.7638796697711945,39.81308840932617,3.1493644697711947Q39.81308840932617,4.811947169771194,38.00992060932617,5.643237369771194L31.30583381932617,5.735625969771195L31.028423309326172,5.966567769771195Z" fill="url(#master_svgb_606_37748)" fill-opacity="1"/></g></g><g><rect x="6" y="5.9169921875" width="49" height="45.082881927490234" rx="8" fill="#FFFFFF" fill-opacity="1"/></g><g><rect x="27" y="5.9169921875" width="6.447368144989014" height="45.082881927490234" rx="0" fill="#FFF3DD" fill-opacity="1"/></g><g filter="url(#master_svgc_673_50961)"><path d="M6 14C6.000000000000001 9.58172200135365 9.581722001353654 6 14 6L47 6C51.418277998646346 6 55 9.581722001353654 55 14L55 30C55 30 55 30 55 30L6 30C6 30 6 30 6 30Z" fill="url(#master_svgd_673_46390)" fill-opacity="1"/></g><g><g filter="url(#master_svge_673_50960)"><ellipse cx="30.447368144989014" cy="29.76267719268799" rx="6.447368144989014" ry="6.440411567687988" fill="#EDEFF2" fill-opacity="1"/><path d="M30.4473681,36.203088625Q30.6056418,36.203088625,30.7637248,36.195329625Q30.9218082,36.187572625,31.0793204,36.172076625Q31.2368317,36.156578625,31.3933926,36.133379625Q31.5499535,36.110181624999996,31.7051868,36.079337625Q31.8604193,36.048493625,32.0139503,36.010077625Q32.1674814,35.971661624999996,32.3189402,35.925766625Q32.4703979,35.879871625,32.6194201,35.826607625Q32.7684422,35.773343625,32.9146681,35.712840625Q33.060894,35.652335625,33.2039728,35.584738625Q33.3470507,35.517141625,33.4866362,35.442612625Q33.6262207,35.368083625,33.761977200000004,35.286801625Q33.8977337,35.205520625,34.029333,35.117683625Q34.160933,35.029845625,34.28806,34.935663625000004Q34.415187,34.841481625,34.537535,34.741182625Q34.659881999999996,34.640882625,34.777155,34.534706625Q34.894428,34.428531625,35.006346,34.316735625Q35.118262,34.204938625,35.224553,34.087793625Q35.330843,33.970645625,35.431252,33.848430625Q35.531658,33.726215625,35.625942,33.599224625Q35.720225,33.472234625,35.808158,33.340777625Q35.89609,33.209319125,35.97746,33.073709525Q36.058828,32.938099825,36.133438,32.798665025Q36.208048,32.659231225,36.275719,32.516306925Q36.34339,32.373383525,36.403958,32.227314925Q36.464527000000004,32.081247325,36.517848,31.932386425Q36.571169,31.783525425,36.617115,31.632229825Q36.663059000000004,31.480934124999997,36.701517,31.327569925Q36.739973,31.174204324999998,36.770851,31.019138825Q36.801729,30.864073725,36.824951999999996,30.707681625Q36.848177,30.551289525,36.86369,30.393948125Q36.879204,30.236606125,36.88697,30.078692925Q36.894735,29.920780225,36.894736,29.762677225Q36.894735,29.604574225,36.88697,29.446661025Q36.879204,29.288748724999998,36.86369,29.131406825Q36.848177,28.974064825,36.824953,28.817672225Q36.801729,28.661280625,36.770851,28.506215125Q36.739973,28.351149525,36.701516,28.197784425000002Q36.663058,28.044419725,36.617114,27.893124625Q36.571169,27.741828925,36.517848,27.592967525Q36.464527000000004,27.444106625,36.403958,27.298038025Q36.34339,27.151969625,36.275719,27.009046125Q36.208048,26.866122725,36.133438,26.726688125Q36.058828,26.587253525,35.977458999999996,26.451643425Q35.89609,26.316033824999998,35.808158,26.184576025Q35.720224,26.053118025,35.625942,25.926128124999998Q35.531658,25.799138525,35.431251,25.676923225Q35.330842000000004,25.554707525,35.224552,25.437560825Q35.118261000000004,25.320414225,35.006344999999996,25.208618425Q34.894428,25.096822525,34.777155,24.990646925Q34.659881,24.884471325,34.537534,24.784171725Q34.415186,24.683872025,34.288059000000004,24.589690125Q34.160933,24.495508025,34.029332,24.407670625Q33.8977318,24.319833155,33.7619762,24.238551855Q33.6262207,24.157270555,33.4866352,24.082741265Q33.3470497,24.008211855,33.2039719,23.940614045Q33.060894,23.873016175,32.9146671,23.812512695Q32.7684412,23.752009215,32.6194191,23.698745845Q32.4703979,23.645482485,32.3189392,23.599587555Q32.167480499999996,23.553692605,32.013948400000004,23.515276655Q31.8604183,23.476860705,31.7051859,23.446016305Q31.5499535,23.415171899,31.3933926,23.391973339Q31.2368317,23.368774787,31.0793204,23.353277963Q30.9218082,23.337781138,30.7637253,23.3300233814Q30.6056418,23.322265625,30.4473681,23.322265625Q30.289094,23.322265625,30.131011,23.3300233814Q29.9729276,23.337781138,29.815415899999998,23.353277963Q29.6579037,23.368774787,29.5013428,23.391973346Q29.3447814,23.415171899,29.1895485,23.446016305Q29.034316099999998,23.476860705,28.8807855,23.515276655Q28.7272549,23.553692605,28.575796099999998,23.599587555Q28.4243374,23.645482485,28.2753153,23.698745845Q28.1262932,23.752009215,27.9800668,23.812512695Q27.8338406,23.873016175,27.6907628,23.940614045Q27.5476847,24.008211855,27.4080994,24.082741205Q27.2685142,24.157270495,27.1327579,24.238551735Q26.9970019,24.319833045,26.865402,24.407670525Q26.7338021,24.495507925,26.6066754,24.589689925000002Q26.4795485,24.683872025,26.3572011,24.784171625Q26.2348535,24.884471225,26.1175802,24.990646825Q26.0003068,25.096822525,25.8883903,25.208618425Q25.7764738,25.320414225,25.6701834,25.437560825Q25.5638931,25.554707525,25.4634852,25.676923225Q25.3630772,25.799138525,25.2687933,25.926128124999998Q25.1745096,26.053117725,25.086577300000002,26.184575825Q24.99864501,26.316033824999998,24.91727591,26.451643425Q24.83590686,26.587253125,24.761296989999998,26.726687925Q24.68668711,26.866122525,24.61901629,27.009046125Q24.55134547,27.151969625,24.4907766,27.298038025Q24.43020779,27.444106625,24.37688687,27.592968025Q24.32356599,27.741828925,24.27762148,27.893124625Q24.23167697,28.044419725,24.19321951,28.197784925Q24.15476206,28.351149525,24.12388435,28.506215125Q24.093006626,28.661280625,24.069783017,28.817672225Q24.046559401,28.974064825,24.031045837,29.131406825Q24.015532273,29.288748724999998,24.0077661364,29.446661025Q24,29.604574225,24,29.762677225Q24,29.920780225,24.0077661364,30.078693425Q24.015532273,30.236606625,24.031045837,30.393948525Q24.046559401,30.551289525,24.069783017,30.707681625Q24.093006626,30.864072825,24.12388435,31.019138325Q24.15476206,31.174203825,24.19321951,31.327569025000003Q24.23167697,31.480934124999997,24.27762148,31.632229825Q24.32356599,31.783525425,24.3768869,31.932386425Q24.43020779,32.081247325,24.4907766,32.227314925Q24.55134547,32.373383525,24.61901629,32.516307825Q24.68668711,32.659231225,24.761296989999998,32.798666025Q24.83590686,32.938100825,24.91727591,33.073709525Q24.99864501,33.209320025,25.086577300000002,33.340778625Q25.1745096,33.472236625,25.2687933,33.599225625Q25.3630772,33.726215625,25.4634851,33.848431625Q25.5638931,33.970646625,25.6701834,34.087793625Q25.7764738,34.204940625,25.8883903,34.316736625000004Q26.0003068,34.428531625,26.1175802,34.534707624999996Q26.2348535,34.640883625,26.3572011,34.741183625Q26.4795485,34.841482625,26.6066754,34.935664625Q26.7338021,35.029846625,26.865402,35.117683625Q26.9970019,35.205520625,27.1327581,35.286802625Q27.2685142,35.368083625,27.4080994,35.442612625Q27.5476847,35.517141625,27.690762499999998,35.584739625Q27.8338406,35.652336625000004,27.9800668,35.712840625Q28.1262932,35.773343625,28.2753153,35.826607625Q28.4243374,35.879871625,28.575796099999998,35.925766625Q28.7272549,35.971661624999996,28.880785,36.010077625Q29.034316099999998,36.048493625,29.1895485,36.079337625Q29.3447814,36.110181624999996,29.5013428,36.133380625Q29.6579037,36.156579625,29.815415899999998,36.172077625Q29.9729276,36.187572625,30.131011,36.195330625Q30.289094,36.203088625,30.4473681,36.203088625ZM34.299621,25.916106725Q35.894736,27.509501025,35.894736,29.762677225Q35.894736,32.015852925000004,34.299621,33.609248625Q32.704058599999996,35.203088625,30.4473681,35.203088625Q28.1906767,35.203088625,26.5951152,33.609248625Q25,32.015853925,25,29.762677225Q25,27.509501025,26.5951154,25.916106725Q28.1906781,24.322265625,30.4473681,24.322265625Q32.7040577,24.322265625,34.299621,25.916106725Z" fill-rule="evenodd" fill="#BFC2CC" fill-opacity="1"/></g><g><ellipse cx="30.44736909866333" cy="29.440412044525146" rx="6.44736909866333" ry="6.4404120445251465" fill="url(#master_svgf_673_43559)" fill-opacity="1"/><ellipse cx="30.44736909866333" cy="29.440412044525146" rx="6.44736909866333" ry="6.4404120445251465" fill-opacity="0" stroke-opacity="1" stroke="#EDEFF2" fill="none" stroke-width="1"/></g></g><g clip-path="url(#master_svgg_676_40983)"><g><path d="M28.780087890625,30.70509770625C28.770244120625,30.74587870625,28.764619110625,30.76978490625,28.708369080625,30.75572250625L28.067119140625,30.59541030625L27.902587890625,31.25634770625L29.085244090625,31.55165960625L28.846181570625,32.51212830625L29.477587890625,32.66962910625L29.716650290625,31.70916030625L30.108993990625,31.80759760625L29.869931590625,32.766659706249996L30.470400290625,32.91712900625L30.710869090625,31.956659806250002L31.162275290625,32.07056620625C31.463212690625,32.14509720625,32.603681590625,32.15916010625,32.849775290625,31.16212890625C33.012162190625,30.613215906249998,32.775036790625,30.02477100625,32.277431490625,29.74181630625C32.277431490625,29.74181630625,32.980556490625,29.52666000625,33.078994290625,28.88259740625C33.177431590625,28.23853520625,32.728837990625,27.93900380625,32.468681290625,27.77447260625C32.264038990625,27.656269806250002,32.046526890625,27.56190430625,31.820399990625,27.49322260625L32.070712590625,26.48916011625L31.492744190625,26.34853511625L31.245243990625,27.34697270625L30.781181590625,27.23166010625L31.034306490625,26.22900390625L30.449306490625,26.08837890625L30.198994190625,27.09103510625L28.975556590625,26.78587883625L28.826494160625,27.37650380625L29.497275390625,27.54384760625C29.564775390625,27.56072250625,29.556337790625,27.59447250625,29.550712690625,27.616972606250002L28.780087890625,30.70509770625ZM30.630712990625,27.82650390625L31.343681590625,28.00509750625C31.466025090625,28.03603510625,32.035556290625,28.28634760625,31.906181290625,28.79119130625C31.840919490625,29.07926130625,31.575008590625,29.27645400625,31.280400290625,29.25525380625C31.222268090625,29.25513480625,31.164303990625,29.24900860625,31.107431690625,29.23697260625L30.321337690625,29.04009750625L30.630712990625,27.82650390625ZM30.179306490625,29.67291000625L31.293056490625,29.95416000625C31.631947290625,30.04549430625,31.824653890625,30.40264420625,31.714931490625,30.73603530625C31.615087990625,31.138222706249998,31.219931390625,31.22681620625,31.024462690625,31.22681620625C30.995624790625,31.22769740625,30.966794290625,31.22486110625,30.938681390625,31.21837900625L29.862900290625,30.95119140625L30.179306490625,29.67291000625Z" fill="#F9934A" fill-opacity="0.5099999904632568" style="mix-blend-mode:passthrough"/></g></g></g></svg>