<svg xmlns="http://www.w3.org/2000/svg" xmlns:xlink="http://www.w3.org/1999/xlink" fill="none" version="1.1" width="40" height="40" viewBox="0 0 40 40"><defs><radialGradient cx="0" cy="0" r="1" gradientUnits="userSpaceOnUse" id="master_svg0_595_35486" gradientTransform="translate(20 20) rotate(90) scale(20 20)"><stop offset="0%" stop-color="#FFFFFF" stop-opacity="0.9900000095367432"/><stop offset="100%" stop-color="#F0EEEE" stop-opacity="1"/></radialGradient><clipPath id="master_svg1_606_38044"><rect x="7.5" y="7.5" width="25" height="25" rx="0"/></clipPath><linearGradient x1="0.5" y1="0" x2="0.5" y2="1" id="master_svg2_595_29765"><stop offset="30.20532727241516%" stop-color="#C7FCFF" stop-opacity="1"/><stop offset="100%" stop-color="#FFFFFF" stop-opacity="1"/></linearGradient><linearGradient x1="1.0119049549102783" y1="0.5" x2="0.005953979678452015" y2="0.5" id="master_svg3_595_29751"><stop offset="0%" stop-color="#171AFF" stop-opacity="1"/><stop offset="100%" stop-color="#72F5F6" stop-opacity="1"/></linearGradient><linearGradient x1="1.0119049549102783" y1="0.5" x2="0.005953979678452015" y2="0.5" id="master_svg4_595_29751"><stop offset="0%" stop-color="#171AFF" stop-opacity="1"/><stop offset="100%" stop-color="#72F5F6" stop-opacity="1"/></linearGradient></defs><g><g><rect x="0" y="0" width="40" height="40" rx="20" fill="url(#master_svg0_595_35486)" fill-opacity="1"/><rect x="0.5" y="0.5" width="39" height="39" rx="19.5" fill-opacity="0" stroke-opacity="1" stroke="#000000" fill="none" stroke-width="1"/></g><g clip-path="url(#master_svg1_606_38044)"><g><g><g><g><path d="M11.1339452,14.5334754L7.5,9.453125L15.252401800000001,11.3884939L20.097656,10.6627305L24.942909,11.3884939L32.695312,9.453125L29.061327,14.5334754L29.061327,19.855742L31.48398,22.516873L30.999414,24.452246000000002L29.545898,23.726483L31.48398,26.145681L30.999414,28.322968L27.607813,26.62953L26.881014,28.564903L24.458376,30.016405L23.489335,28.564903L22.278026,29.774412L20.097656,30.742187L17.917282999999998,29.774412L16.7059765,28.564903L15.7369337,30.016405L13.314296200000001,28.564903L12.5875192,26.62953L9.1958377,28.322968L8.7113125,26.145681L10.6494141,23.726483L9.1958377,24.452246000000002L8.7113125,22.516873L11.1339452,19.855742L11.1339452,14.5334754Z" fill-rule="evenodd" fill="url(#master_svg2_595_29765)" fill-opacity="1"/></g></g><g><g><path d="M22.136059711499023,18.82715032421875L25.871119911499022,14.57000732421875C26.29473191149902,15.06847277421875,26.550220911499025,15.71355422421875,26.550220911499025,16.41814682421875C26.550220911499025,17.99769712421875,25.266274911499025,19.278166324218752,23.682447911499025,19.278166324218752C23.112974211499022,19.278166324218752,22.582250611499024,19.11261892421875,22.136059711499023,18.82715032421875ZM14.324378131499023,14.57001850008975L18.059440111499022,18.82715032421875C17.613249111499023,19.11261892421875,17.082545511499024,19.278166324218752,16.513054111499024,19.278166324218752C14.929239411499024,19.278166324218752,13.645299911499023,17.99769712421875,13.645299911499023,16.41814682421875C13.645299911499023,15.71356022421875,13.900774721499024,15.06848245421875,14.324378131499023,14.57001850008975Z" fill-rule="evenodd" fill="#FFFFFF" fill-opacity="1"/></g></g><g><g><path d="M23.030507040722654,18.07711215908203L25.230291740722656,15.593635559082031C25.416970740722654,15.866148029082032,25.525995740722657,16.19480579908203,25.525995740722657,16.54861670908203C25.525995740722657,17.49090745908203,24.752712740722657,18.25478835908203,23.79880714072266,18.25478835908203C23.522811840722657,18.25478835908203,23.261912340722656,18.19082355908203,23.030507040722654,18.07711215908203ZM14.965153250722656,15.593648970127031L17.164939840722656,18.07711215908203C16.933533940722658,18.19082355908203,16.672655540722655,18.25478835908203,16.396645040722657,18.25478835908203C15.442753310722656,18.25478835908203,14.669471740722656,17.49090745908203,14.669471740722656,16.54861670908203C14.669471740722656,16.194811759082032,14.778490130722655,15.866157709082032,14.965153250722656,15.593648970127031Z" fill-rule="evenodd" fill="#182A72" fill-opacity="1"/></g></g><g style="opacity:0.5;"><g><path d="M7.5,9.453125L13.5565619,13.8077145L18.644081,19.613808L20.097656,22.758789L21.551229,19.613808L26.638748,13.8077145L32.695312,9.453125L24.942909,11.3884939L20.097656,10.6627305L15.252401800000001,11.3884939L7.5,9.453125Z" fill="url(#master_svg3_595_29751)" fill-opacity="1"/></g></g><g><g><path d="M15.283905029296875,11.3360671742334L20.097635729296876,17.8458795642334L17.209400929296876,11.090703964233398L15.283905029296875,11.3360671742334ZM20.097635729296876,17.8458795642334L24.911385529296876,11.3360671742334L23.000116329296876,11.090703964233398L20.097635729296876,17.8458795642334Z" fill="#EBFEFF" fill-opacity="1"/></g></g><g><g><path d="M11.1339452,19.855742L11.1339452,14.5334754L7.5,9.453125L8.7159003,9.75667185L15.252401800000001,11.3884939L20.097656,10.6627305L24.942909,11.3884939L31.47949,9.75667185L32.695312,9.453125L31.966209,10.4724237Q31.239988,11.4876869,30.513767,12.5029497Q29.787544,13.5182128,29.061327,14.5334754L29.061327,19.855742L31.48398,22.516873L31.201561,23.645135L31.039648,24.291757L30.999414,24.452246000000002L30.255075,24.080565L29.545898,23.726483L30.758202,25.239764L31.48398,26.145681L31.181248,27.5058L30.999414,28.322968L30.250389,27.949001L28.338474,26.994373L27.607813,26.62953L27.320702,27.39414L26.881014,28.564903L24.458376,30.016405L23.949179,29.25371L23.489335,28.564903L22.903280000000002,29.150192L22.278026,29.774412L20.097656,30.742187L17.917282999999998,29.774412L17.2920303,29.150192L16.7059765,28.564903L16.2461128,29.25371L15.7369337,30.016405L13.314296200000001,28.564903L12.8746481,27.39414L12.5875192,26.62953L11.856776700000001,26.994373L9.944843500000001,27.949001L9.1958377,28.322968L9.0139861,27.5058L8.7113125,26.145681L9.4370682,25.239764L10.6494141,23.726483L9.940214600000001,24.080565L9.1958377,24.452246000000002L9.1556621,24.291757L8.9937811,23.645135L8.7113125,22.516873L11.1339452,19.855742ZM11.7946677,14.0608582L9.4449979,10.7759707L15.2126746,12.2158592L20.097656,11.4841404L24.982635,12.2158592L30.750389,10.7759707L28.249022,14.272831400000001L28.249022,20.170116999999998L30.590235,22.741854L30.457226,23.273476000000002L26.59873,21.346992L30.606443,26.349529L30.432419,27.131817L27.164257,25.500057L26.220215,28.013805L24.70447,28.92197L23.615524,27.290859L21.810682,29.093163L20.097656,29.853516L18.384629,29.093163L16.5797834,27.290859L15.4908395,28.92197L13.9750972,28.013805L13.031113099999999,25.500057L9.7629883,27.131817L9.5888867,26.349529L13.596561399999999,21.346992L9.7381444,23.273476000000002L9.6050584,22.741854L11.9462881,20.170116999999998L11.9462881,14.272831400000001L11.7946677,14.0608582Z" fill-rule="evenodd" fill="url(#master_svg4_595_29751)" fill-opacity="1"/></g></g><g><g><path d="M20.097337370947265,22.757947488134764L18.561038970947266,19.564598188134767L20.097337370947265,17.845096588134766L21.633636670947265,19.564598188134767L20.097337370947265,22.757947488134764Z" fill-rule="evenodd" fill="#182A72" fill-opacity="1"/></g></g></g></g></g></g></svg>