<svg xmlns="http://www.w3.org/2000/svg" xmlns:xlink="http://www.w3.org/1999/xlink" fill="none" version="1.1" width="42" height="31" viewBox="0 0 42 31"><g><g><path d="M20.857698,4.567451C23.85029,4.567451,26.776861,5.818934,28.856621,8.1105642C29.157063,8.4415293,30.456018,8.5119781,31.508358,8.5119781C32.289509,8.5119781,32.934631,8.4731522,32.934631,8.4731522C32.934631,8.4731522,30.926805,11.364526,31.154615,12.053507C32.748619,16.876745,30.821951,22.325176,26.286402,24.966219C24.57988,25.960011,22.716436,26.43256,20.877905,26.43256C17.866859,26.43256,14.922516,25.165613,12.840491,22.846764C12.568788,22.544079,11.431114,22.473801,10.432074,22.473801C9.5641832,22.473801,8.8009758,22.526857,8.8009758,22.526857C8.8009758,22.526857,10.762121,19.528858,10.528739,18.783468C9.0308771,14.000998,10.964863,8.645134,15.449202,6.0337815C17.155725,5.0400085,19.019348,4.5676332,20.857698,4.567451ZM20.858053,0C20.858053,0,20.858053,4.567451,20.858053,4.567451C20.858053,4.567451,20.858053,0,20.858053,0C20.858053,0,20.857876,0,20.857876,0C20.857876,0,20.857527,0,20.857527,0C18.172697,0.0001734416,15.519576,0.71884465,13.184999,2.0781856C10.137551,3.8528244,7.7686687,6.6539059,6.5151687,9.9651279C5.4645762,12.740037,5.2297983,15.775989,5.8233652,18.661741C5.5958991,19.081062,5.2919726,19.595961,5.0192256,20.014397C5.0192256,20.014397,0,27.714432,0,27.714432C0,27.714432,9.1125641,27.083406,9.1125641,27.083406C9.1153479,27.083246,9.7428856,27.04126,10.432074,27.04126C10.494773,27.04126,10.553993,27.04162,10.609727,27.042128C13.411071,29.573902,17.073168,30.999998,20.877905,30.999998C23.562737,30.999998,26.21603,30.281353,28.550604,28.921822C31.634628,27.125931,34.017971,24.286028,35.261539,20.925253C36.287754,18.152107,36.501984,15.132844,35.896568,12.26326C36.119152,11.88768,36.396255,11.451138,36.645668,11.09066C36.645668,11.09066,42,3.3546209,42,3.3546209C42,3.3546209,32.664845,3.9137812,32.664845,3.9137812C32.663105,3.9139545,32.132923,3.9445193,31.508358,3.9445193C31.357353,3.9445193,31.223589,3.9427619,31.105854,3.9397814C28.30694,1.4201241,24.650072,0,20.858053,0C20.858053,0,20.858053,0,20.858053,0C20.858053,0,20.858053,0,20.858053,0Z" fill="#5A4015" fill-opacity="1"/></g><g><ellipse cx="2.787276924937032" cy="6.540492296218872" rx="2.7867164611816406" ry="2.8107407093048096" fill="#5A4015" fill-opacity="1"/></g></g></svg>