<svg xmlns="http://www.w3.org/2000/svg" xmlns:xlink="http://www.w3.org/1999/xlink" fill="none" version="1.1" width="42" height="42" viewBox="0 0 42 42"><defs><clipPath id="master_svg0_681_49018"><rect x="11.375" y="10.5" width="19.25" height="19.25" rx="0"/></clipPath></defs><g><g><ellipse cx="21" cy="21" rx="21" ry="21" fill="#FFDC51" fill-opacity="1"/></g><g clip-path="url(#master_svg0_681_49018)"><g><path d="M28.061183617187503,23.757398375L27.9765896171875,23.757398375C28.1908946171875,22.520435374999998,27.8938746171875,21.317310374999998,27.1851576171875,20.503322075C27.395705617187502,20.208179475,27.521658617187498,19.849121574999998,27.521658617187498,19.461866375C27.521658617187498,18.463648275,26.696388617187502,17.653418575,25.6812536171875,17.653418575C24.666116617187498,17.653418575,23.840846617187502,18.463648275,23.840846617187502,19.461866375C23.840846617187502,20.460083475,24.666116617187498,21.272192975,25.6812536171875,21.272192975C25.918117617187498,21.272192975,26.143703617187498,21.227077475,26.3542496171875,21.146242174999998C26.8336196171875,21.685767175000002,27.1531996171875,22.631349575,26.9031756171875,23.757398375L24.6040796171875,23.757398375L24.6040796171875,22.548633575C24.6040796171875,22.351245875,24.4894066171875,22.170777275,24.3108176171875,22.084302875L20.6431646171875,20.283374775L21.7316170171875,18.726831875000002C21.7917747171875,18.640357475000002,21.8256111171875,18.536963475,21.8256111171875,18.431691175L21.8256111171875,15.861890075C21.8256111171875,14.153076375,20.2432194171875,12.818359375,18.6598883171875,12.818359375C17.076557117187498,12.818359375,15.4922857171875,14.153076375,15.4922857171875,15.861890075L15.4922857171875,18.431691175C15.4922857171875,18.538843675,15.5261235171875,18.645996574999998,15.590039517187499,18.732471975L16.7085705171875,20.277736175L12.8830078571875,22.080542575000003C12.7006592171875,22.165137275,12.5841064471875,22.347486475,12.5822265671875,22.548633575L12.5653076171875,26.082814374999998C12.5653076171875,26.825368375,13.1800293371875,27.426932375,13.9338625171875,27.426932375L28.061183617187503,27.426932375C28.8150156171875,27.426932375,29.4278606171875,26.823487375,29.4278606171875,26.082814374999998Q29.4259816171875,25.842188375,29.4278606171875,25.101514375C29.4297386171875,24.360840375000002,28.8150156171875,23.757398375,28.061183617187503,23.757398375ZM24.897339617187498,19.461866375C24.897339617187498,19.037012575,25.248879617187498,18.691114475,25.6831326171875,18.691114475C26.1173836171875,18.691114475,26.4689236171875,19.037012575,26.4689236171875,19.461866375C26.465162617187502,19.892359275,26.1136246171875,20.238257375,25.6831326171875,20.234497575C25.2526386171875,20.238257375,24.901100617187502,19.892359275,24.897339617187498,19.461866375ZM28.373244617187503,26.082814374999998C28.373244617187503,26.252003375,28.2322526171875,26.389233375,28.061183617187503,26.389233375L13.9338625171875,26.389233375C13.7627930171875,26.391114375,13.6236819171875,26.253883375,13.6218018171875,26.082814374999998L13.6218018171875,25.146633375L13.6387209171875,25.146633375L13.6387209171875,25.003763375C13.683838017187501,24.877809375,13.8022706171875,24.795094374999998,13.9338625171875,24.795094374999998L28.061183617187503,24.795094374999998C28.2341336171875,24.795094374999998,28.373244617187503,24.932325374999998,28.373244617187503,25.101514375L28.373244617187503,26.082814374999998Z" fill="#333333" fill-opacity="1" style="mix-blend-mode:passthrough"/></g></g></g></svg>