<svg xmlns="http://www.w3.org/2000/svg" xmlns:xlink="http://www.w3.org/1999/xlink" fill="none" version="1.1" width="15" height="15" viewBox="0 0 15 15"><g><path d="M14.768926,10.53871L13.625973,8.6032257C13.317873,8.0806437,12.741426,7.7516117,12.115289,7.7516117L10.167302,7.7516117C10.167302,7.7516117,10.097729,7.6838703,10.057976,7.6548381C9.700181,7.4516129,9.3225107,7.287096,8.9448395,7.1516128C8.696372,7.0645151,8.4479036,7.016129,8.1894979,6.9580641C9.5113459,6.3967738,10.435647,5.1193547,10.435647,3.6290321C10.435647,1.6258063,8.7659426,0,6.7086301,0C4.6513166,0,2.9816134,1.6258063,2.9816134,3.6290321C2.9816134,5.1096773,3.8959749,6.377419,5.2078853,6.9483876C2.2262712,7.6161289,0,10.209676,0,13.306452C0,13.674192,0.029816136,14.041935,0.089448385,14.390321C0.14908068,14.748387,0.46711943,15,0.82491302,15C0.86466783,15,0.9044227,15,0.94417757,14.990322C1.3471975,14.921233,1.6204201,14.55221,1.5603777,14.158064C1.0277485,11.057143,3.4797564,8.2317295,6.7086301,8.2258053C7.2850757,8.2258053,7.8416433,8.3225803,8.3882723,8.4967737C8.3683949,8.5258064,8.3385782,8.5548382,8.3187017,8.5838709L7.1658101,10.519355C6.8577104,11.041934,6.8577104,11.690323,7.1658101,12.212904L8.3087616,14.148385C8.6168633,14.670968,9.1933079,15,9.8194466,15L12.115289,15C12.731488,15,13.307935,14.680643,13.625973,14.148385L14.768926,12.212904C15.077024,11.690323,15.077024,11.041934,14.768926,10.519355L14.768926,10.53871ZM9.2453127,3.6909227C9.2453127,5.0333104,8.1277113,6.1215305,6.7490783,6.1215305C5.3704462,6.1215305,4.2528439,5.0333104,4.2528439,3.6909227C4.2528439,2.3485351,5.3704462,1.2603151,6.7490783,1.2603151C8.1277113,1.2603151,9.2453127,2.3485351,9.2453127,3.6909227ZM13.476892,11.506452L12.33394,13.441936C12.294187,13.519354,12.204737,13.558064,12.115289,13.558064L9.8194466,13.558064C9.7299976,13.558064,9.6504879,13.509677,9.6007948,13.441936L8.4578428,11.506452C8.4180202,11.430467,8.4180202,11.340499,8.4578428,11.264516L9.6007948,9.3290329C9.6405497,9.2516127,9.7299976,9.212903,9.8194466,9.212903L12.115289,9.212903C12.204737,9.212903,12.284246,9.2612896,12.33394,9.3290329L13.476892,11.264516C13.516647,11.341935,13.516647,11.429031,13.476892,11.506452ZM10.914525,12.400816Q11.012412,12.400815,11.108419,12.382219Q11.204426,12.363625,11.294863,12.327149Q11.3853,12.290674,11.46669,12.237721Q11.54808,12.184768,11.617298,12.117371Q11.686515,12.049973,11.740898,11.970722Q11.795282,11.89147,11.832742,11.803411Q11.870202,11.715353,11.889299,11.62187Q11.908396,11.528387,11.908397,11.433074Q11.908396,11.337759,11.889299,11.244276Q11.870201,11.150793,11.832741,11.062735Q11.795281,10.974675,11.740898,10.895425Q11.686515,10.816174,11.617298,10.748776Q11.54808,10.681379,11.46669,10.628426Q11.385299,10.575472,11.294862,10.538996Q11.204426,10.502522,11.108418,10.483927Q11.012412,10.465332,10.914525,10.465332Q10.816637,10.465332,10.720631,10.483927Q10.624622,10.502522,10.534186,10.538996Q10.44375,10.575472,10.362359,10.628426Q10.280969,10.681379,10.211752,10.748776Q10.142534,10.816174,10.088151,10.895424Q10.033768,10.974675,9.9963074,11.062735Q9.958847,11.150793,9.9397507,11.244276Q9.9206543,11.337759,9.9206543,11.433074Q9.9206543,11.528387,9.9397507,11.62187Q9.958847,11.715353,9.9963074,11.803411Q10.033768,11.89147,10.088151,11.970722Q10.142534,12.049973,10.211752,12.11737Q10.280969,12.184767,10.36236,12.23772Q10.44375,12.290674,10.534186,12.327149Q10.624622,12.363625,10.72063,12.382219Q10.816637,12.400815,10.914525,12.400816Z" fill-rule="evenodd" fill="#474747" fill-opacity="1" style="mix-blend-mode:passthrough"/></g></svg>