<svg xmlns="http://www.w3.org/2000/svg" xmlns:xlink="http://www.w3.org/1999/xlink" fill="none" version="1.1" width="46" height="18" viewBox="0 0 46 18"><g><rect x="0" y="0" width="46" height="18" rx="9" fill="#FFEEFD" fill-opacity="1"/><g><path d="M10.75,5.860000100000001L8,13L9.16,13L9.8299999,11.1599998L12.9000001,11.1599998L13.5699997,13L14.7399998,13L11.99,5.860000100000001L10.75,5.860000100000001ZM10.1599998,10.2600002L11.3499999,7.0300002L11.3899999,7.0300002L12.5699997,10.2600002L10.1599998,10.2600002ZM19.059998999999998,5.720000300000001L19.059998999999998,8.5999999C18.639999,7.9900002,18.11,7.6900001,17.479999499999998,7.6900001C16.7399998,7.6900001,16.1499996,7.96,15.7299995,8.5C15.3299999,9,15.1399999,9.6300001,15.1399999,10.3900003C15.1399999,11.1800003,15.3399997,11.8299999,15.7399998,12.33C16.1700001,12.87,16.7699995,13.14,17.529999699999998,13.14C18.23,13.14,18.77,12.88,19.129998999999998,12.38L19.129998999999998,13L20.119999999999997,13L20.119999999999997,5.720000300000001L19.059998999999998,5.720000300000001ZM17.719999299999998,8.5500002C18.11,8.5500002,18.429999000000002,8.7000003,18.689999999999998,9.02C18.95,9.3600001,19.09,9.8100004,19.09,10.3699999L19.09,10.46C19.09,10.9799995,18.98,11.3999996,18.759999999999998,11.7299995C18.5,12.09,18.15,12.28,17.6899996,12.28C17.1700001,12.28,16.779999699999998,12.09,16.54,11.7200003C16.3299999,11.3999996,16.229999499999998,10.96,16.229999499999998,10.3900003C16.229999499999998,9.820000199999999,16.3400002,9.3800001,16.5599995,9.0799999C16.8099995,8.720000299999999,17.1999998,8.5500002,17.719999299999998,8.5500002ZM23.799999,7.6900001C23.279999,7.6900001,22.799999,7.9200001,22.379998999999998,8.4000001L22.379998999999998,7.8299999L21.32,7.8299999L21.32,13L22.379998999999998,13L22.379998999999998,9.8900003C22.379998999999998,9.529999700000001,22.48,9.220000299999999,22.699999,8.970000299999999C22.9,8.71,23.179999000000002,8.5799999,23.52,8.5799999C24.219999,8.5799999,24.58,8.98,24.58,9.8000002L24.58,13L25.639999,13L25.639999,9.820000199999999C25.639999,9.440000099999999,25.74,9.1300001,25.939999,8.9100003C26.139999,8.690000099999999,26.379999,8.5799999,26.68,8.5799999C27.079998,8.5799999,27.379999,8.6700001,27.559999,8.8699999C27.74,9.0600004,27.829998,9.3699999,27.829998,9.79L27.829998,13L28.889999,13L28.889999,9.6100001C28.889999,9.029999700000001,28.709999,8.570000199999999,28.369999,8.220000299999999C28.019999,7.8600001,27.579998,7.6900001,27.049999,7.6900001C26.699999,7.6900001,26.41,7.75,26.169998,7.8800001C25.91,8.0100002,25.66,8.2400002,25.43,8.559999900000001C25.109999,7.98,24.559999,7.6900001,23.799999,7.6900001ZM30.839998,5.7600002C30.629997,5.7600002,30.459997,5.8200002,30.319998,5.96C30.179998,6.0900002,30.109999,6.2600002,30.109999,6.4700003C30.109999,6.6700001,30.179998,6.8499999,30.319998,6.9900002C30.459997,7.1200004,30.629997,7.1900001,30.839998,7.1900001C31.039997,7.1900001,31.219997,7.1200004,31.359999,6.9900002C31.499998,6.8499999,31.579998,6.6800003,31.579998,6.4700003C31.579998,6.2600002,31.509998,6.0900002,31.369997,5.96C31.229998,5.8200002,31.049997,5.7600002,30.839998,5.7600002ZM30.309998,7.8299999L30.309998,13L31.369997,13L31.369997,7.8299999L30.309998,7.8299999ZM35.419996,7.6900001C35.099997,7.6900001,34.809998,7.75,34.549997000000005,7.8900003C34.289997,8.02,34.059998,8.21,33.859997,8.470000299999999L33.859997,7.8299999L32.799997000000005,7.8299999L32.799997000000005,13L33.859997,13L33.859997,9.8900003C33.899998,9.470000299999999,34.049997000000005,9.1400003,34.289997,8.9000001C34.509996,8.6800003,34.779997,8.5799999,35.079996,8.5799999C35.879997,8.5799999,36.289997,9.02,36.289997,9.9000001L36.289997,13L37.349997,13L37.349997,9.8100004C37.349997,8.3899999,36.699996999999996,7.6900001,35.419996,7.6900001Z" fill="#FA47BC" fill-opacity="1"/></g></g></svg>