<svg xmlns="http://www.w3.org/2000/svg" xmlns:xlink="http://www.w3.org/1999/xlink" fill="none" version="1.1" width="6.799999952316284" height="11.799999952316284" viewBox="0 0 6.799999952316284 11.799999952316284"><g transform="matrix(-1,0,0,1,11.799999952316284,0)"><path d="M6.536603746158142,0.2638116461581421L11.536395876158142,5.263604076158142Q11.662982776158142,5.390191476158142,11.731490976158142,5.555584776158142Q11.799999576158143,5.720979076158142,11.799999576158143,5.899999976158142Q11.799999576158143,6.079020876158142,11.731491476158142,6.244414676158142Q11.662982776158142,6.409808976158142,11.536395876158142,6.536395876158142L6.536396026158142,11.536395976158142Q6.409808876158142,11.662982976158142,6.244414926158142,11.731490976158142Q6.0790209961581425,11.799999976158142,5.899999976158142,11.799999976158142Q5.8113577141581425,11.799999976158142,5.724418696158142,11.782705976158143Q5.637479666158142,11.765411976158141,5.555584906158142,11.731490976158142Q5.473690126158142,11.697567976158142,5.399986746158142,11.648321976158142Q5.3262834561581425,11.599074976158143,5.263603926158142,11.536394976158142Q5.200924396158142,11.473714976158142,5.151677426158142,11.400011976158142Q5.102430406158142,11.326308976158142,5.0685085061581425,11.244413976158143Q5.034586546158142,11.162519976158142,5.017293336158142,11.075580976158141Q5.000000056158142,10.988641976158142,4.999999996158142,10.899999976158142Q5.000000056158142,10.720978176158143,5.068508386158142,10.555584276158141Q5.137016776158142,10.390190476158143,5.263603746158142,10.263604476158141L5.264115336158142,10.263093376158142L9.627208076158142,5.899999976158142L5.263811646158143,1.536603746158142L5.263603926158142,1.5363960261581422Q5.137016896158142,1.4098089961581421,5.068508446158142,1.244415046158142Q4.999999996158142,1.0790210961581421,4.999999996158142,0.8999999761581421Q5.000000056158142,0.8113577141581421,5.017293336158142,0.724418696158142Q5.034586546158142,0.6374796661581421,5.0685085061581425,0.5555849061581422Q5.102430406158142,0.4736901261581421,5.151677366158142,0.3999867461581421Q5.200924396158142,0.32628345615814214,5.263603926158142,0.2636039261581421Q5.3262834561581425,0.20092439615814206,5.399986806158142,0.15167742615814206Q5.473690126158142,0.10243040615814214,5.555584906158142,0.06850850615814208Q5.637479666158142,0.03458654615814205,5.724418696158142,0.017293336158142103Q5.8113577141581425,5.6158142136553124e-8,5.899999976158142,-3.8418579428878274e-9Q6.079021096158142,-3.8418579428878274e-9,6.244415046158142,0.06850844615814211Q6.409808996158142,0.13701683615814209,6.536396086158142,0.26360386615814213L6.536603746158142,0.2638116461581421Z" fill-rule="evenodd" fill="#303133" fill-opacity="1"/></g></svg>