<svg xmlns="http://www.w3.org/2000/svg" xmlns:xlink="http://www.w3.org/1999/xlink" fill="none" version="1.1" width="30" height="30" viewBox="0 0 30 30"><rect x="0" y="0" width="30" height="30" rx="0" fill="#BFC2CC" fill-opacity="1" style="opacity:0;"/><g transform="matrix(0.7071067690849304,0.7071067690849304,-0.7071067690849304,0.7071067690849304,14.998973016684317,-6.212798910834977)"><path d="M21.647123841967773,15.13942435234375Q21.657039641967774,15.06954338434375,21.657039641967774,14.99896240234375Q21.657039641967774,14.90049069334375,21.637828341967772,14.80391110234375Q21.618617541967772,14.70733151234375,21.580934041967772,14.61635554234375Q21.543250541967772,14.52537954234375,21.488542541967774,14.44350332234375Q21.433835041967775,14.36162710234375,21.364204841967773,14.29199707234375Q21.29457474196777,14.222367052343749,21.212697941967775,14.16765916234375Q21.13082174196777,14.11295122234375,21.039845441967774,14.07526773234375Q20.948869741967773,14.03758418234375,20.852290641967773,14.01837331234375Q20.755710641967774,13.99916243234375,20.657239441967775,13.99916237234375Q20.567653641967773,13.99916249234375,20.479494541967775,14.01508903234375Q20.391335441967772,14.03101563234375,20.30741314196777,14.06236130234375Q20.223489741967775,14.09370708234375,20.146476241967775,14.13947332234375Q20.069462741967772,14.18523955234375,20.001812941967774,14.24396813234375Q19.934162141967775,14.30269682234375,19.878030341967772,14.37251681234375Q19.821898441967775,14.44233680234375,19.779073741967775,14.52102363234375Q19.736248541967775,14.59971058234375,19.708094641967772,14.68475747234375Q19.679940241967774,14.76980434234375,19.667355041967774,14.85850164234375L19.667157641967773,14.85847364234375Q19.402589341967772,16.72299170234375,18.063051441967772,18.06222300234375Q16.723479741967772,19.40148830234375,14.858687371967774,19.66575430234375L14.858715411967774,19.66595220234375Q14.770004661967773,19.67852350234375,14.684942631967774,19.70666790234375Q14.599880571967773,19.73481180234375,14.521178011967773,19.77763180234375Q14.442475441967773,19.82045170234375,14.372640311967773,19.87658310234375Q14.302805181967774,19.93271450234375,14.244063081967774,20.00036810234375Q14.185320971967773,20.06802180234375,14.139543771967773,20.14504150234375Q14.093766631967773,20.22206160234375,14.062413211967772,20.30599360234375Q14.031059741967773,20.38992600234375,14.015129211967773,20.47809550234375Q13.999198611967774,20.56626510234375,13.999198611967774,20.65586190234375Q13.999198671967774,20.754333502343748,14.018409551967773,20.850913002343752Q14.037620421967773,20.94749260234375,14.075303911967774,21.03846840234375Q14.112987401967773,21.12944410234375,14.167695341967773,21.21132090234375Q14.222403291967773,21.29319670234375,14.292033311967774,21.36282730234375Q14.361663341967773,21.43245700234375,14.443539561967773,21.48716450234375Q14.525415781967773,21.54187250234375,14.616391781967774,21.57955600234375Q14.707367751967773,21.61723950234375,14.803947341967774,21.63645080234375Q14.900526932967773,21.65566160234375,14.998998641967773,21.65566210234375Q15.069488949967774,21.65566210234375,15.139281931967773,21.64577150234375L15.139309911967773,21.64596890234375Q17.665281541967772,21.28800490234375,19.477103241967775,19.47659830234375Q21.288928541967774,17.66518710234375,21.647322141967773,15.13945251234375L21.647123841967773,15.13942435234375Z" fill-rule="evenodd" fill="currentColor" fill-opacity="1"/></g><ellipse cx="15" cy="15" rx="11.375" ry="11.375" fill-opacity="0" stroke-opacity="1" stroke="#303133" fill="none" stroke-width="2"/><rect x="10" y="9" width="3" height="5" rx="1.5" fill="currentColor" fill-opacity="1"/><rect x="17" y="9" width="3" height="5" rx="1.5" fill="currentColor" fill-opacity="1"/></svg>