<svg xmlns="http://www.w3.org/2000/svg" xmlns:xlink="http://www.w3.org/1999/xlink" fill="none" version="1.1" width="24" height="24" viewBox="0 0 24 24"><defs><clipPath id="master_svg0_673_62645"><rect x="0" y="0" width="24" height="24" rx="0"/></clipPath><linearGradient x1="1.0576986074447632" y1="1" x2="0.28583470310188647" y2="-0.06014648017996471" id="master_svg1_673_59034"><stop offset="0%" stop-color="#E75943" stop-opacity="1"/><stop offset="34.28571820259094%" stop-color="#E7AC43" stop-opacity="1"/><stop offset="68.27332377433777%" stop-color="#FFE2AE" stop-opacity="1"/><stop offset="100%" stop-color="#FFE668" stop-opacity="1"/></linearGradient><clipPath id="master_svg2_673_62649"><rect x="7" y="8" width="10" height="7" rx="0"/></clipPath></defs><g clip-path="url(#master_svg0_673_62645)"><g><g><g transform="matrix(-1,0,0,1,48,0)"><path d="M27.3068604,5.3924861C25.803602,5.441361,24.89018428,7.069711699999999,25.6321312,8.378027L27.1266556,11.013403C27.4736953,11.625357,27.4736953,12.374643,27.1266558,12.986597L25.6321309,15.621974999999999C24.89018416,16.93029,25.8036017,18.55864,27.30686,18.607515L30.813808,18.721535C31.459691,18.742535,32.0556269,19.074314,32.4137058,19.612261L34.335114000000004,22.498816C35.126588999999996,23.687859,36.873416,23.68786,37.664891,22.498816L39.586295,19.612263C39.944373,19.074316,40.540310000000005,18.742535,41.186193,18.721535L44.693142,18.607515C46.196402,18.55864,47.109818000000004,16.930288,46.367869999999996,15.621973L44.873346,12.986597C44.526306000000005,12.374642,44.526306000000005,11.625358,44.873346,11.013402L46.367869999999996,8.378026C47.109818000000004,7.0697107,46.1964,5.4413595,44.693142,5.3924847L41.186193,5.2784643C40.540310000000005,5.2574649,39.944373,4.925683,39.586295,4.3877368L37.664891,1.5011849000000002C36.873416,0.31214070000000005,35.12659,0.31214030000000004,34.335114000000004,1.5011842L32.4137049,4.3877397C32.0556259,4.9256854,31.4596901,5.2574668,30.813807,5.2784662L27.3068604,5.3924861Z" fill="url(#master_svg1_673_59034)" fill-opacity="1"/></g></g></g><g clip-path="url(#master_svg2_673_62649)"><g><ellipse cx="10.4375" cy="9.813253045082092" rx="1.6796875" ry="1.8132530450820923" fill="#8D5518" fill-opacity="1" style="mix-blend-mode:passthrough"/></g><g><ellipse cx="14.20703125" cy="10.108539700508118" rx="1.328125" ry="1.4337350130081177" fill="#8D5518" fill-opacity="1" style="mix-blend-mode:passthrough"/></g><g><path d="M17.00004670546875,14.748063049999999C17.00004670546875,14.88806365,16.89145300546875,14.99938895,16.76176520546875,14.99938895L15.57817150546875,14.99938895C15.45082800546875,14.99938895,15.35707750546875,14.88384655,15.35942110546875,14.74637675C15.35942110546875,14.74469045,15.35942110546875,14.74384715,15.35942110546875,14.742160049999999C15.25082740546875,14.00673775,14.63363981546875,12.62529212,13.91254639646875,12.09481002C13.72895276546875,11.959026814,13.97192156546875,11.87890625,13.97192156546875,11.87890625L14.34770262546875,11.87890625C15.81410860546875,11.87890625,17.00317120546875,13.16420795,17.00004670546875,14.748063049999999Z" fill="#8D5518" fill-opacity="1" style="mix-blend-mode:passthrough"/></g><g><path d="M14.5,14.742160049999999C14.5,14.88469005,14.3929691,14.99938895,14.2617178,14.99938895L7.23828128,14.99938895C7.10625,14.99938895,7,14.88384655,7,14.742160049999999C7,13.16083415,8.1875,11.87890625,9.6523438,11.87890625L11.8484373,11.87890625C13.313281100000001,11.87890625,14.500782000000001,13.16083415,14.500782000000001,14.742160049999999L14.5,14.742160049999999Z" fill="#8D5518" fill-opacity="1" style="mix-blend-mode:passthrough"/></g></g></g></svg>