<svg xmlns="http://www.w3.org/2000/svg" xmlns:xlink="http://www.w3.org/1999/xlink" fill="none" version="1.1" width="23" height="15" viewBox="0 0 23 15"><defs><clipPath id="master_svg0_661_48252"><rect x="0" y="0" width="23" height="15" rx="0"/></clipPath></defs><g clip-path="url(#master_svg0_661_48252)"><g><ellipse cx="7.90625" cy="3.885542154312134" rx="3.86328125" ry="3.885542154312134" fill="#333333" fill-opacity="1" style="mix-blend-mode:passthrough"/></g><g><ellipse cx="16.576171875" cy="4.517601728439331" rx="3.0546875" ry="3.072289228439331" fill="#333333" fill-opacity="1" style="mix-blend-mode:passthrough"/></g><g><path d="M23.000028096875,14.4606929C23.000028096875,14.7606936,22.750262696874998,14.9992476,22.451980596875,14.9992476L19.729714896875,14.9992476C19.436824796875,14.9992476,19.221198796875,14.751657,19.226589196875,14.457078899999999C19.226589196875,14.453465,19.226589196875,14.4516578,19.226589196875,14.4480424C18.976823796875,12.8721385,17.557292196875,9.911898,15.898777366875,8.77515087C15.476512016875,8.48418689,16.035340246875,8.3125,16.035340246875,8.3125L16.899636696875,8.3125C20.272370296875,8.3125,23.007214496875,11.0667171,23.000028096875,14.4606929Z" fill="#333333" fill-opacity="1" style="mix-blend-mode:passthrough"/></g><g><path d="M17.25,14.4480424C17.25,14.7534642,17.003828,14.9992476,16.701952,14.9992476L0.54804689,14.9992476C0.24437498,14.9992476,0,14.751657,0,14.4480424C0,11.0594881,2.73125,8.3125,6.1003909,8.3125L11.151406,8.3125C14.520546,8.3125,17.251797,11.0594881,17.251797,14.4480424L17.25,14.4480424Z" fill="#333333" fill-opacity="1" style="mix-blend-mode:passthrough"/></g></g></svg>