<svg xmlns="http://www.w3.org/2000/svg" xmlns:xlink="http://www.w3.org/1999/xlink" fill="none" version="1.1" width="24" height="20.001728057861328" viewBox="0 0 24 20.001728057861328"><g><path d="M1.4639999,13.465727C2.4018717,12.528102,3.6738226,12.001479,5,12.001727L12.999999,12.001727C15.761422,12.001726,17.999998,14.240302,18,17.001726L18,19.00173C18,19.554012,17.552286,20.001728,16.999998,20.001728C16.447716,20.001728,16,19.554012,16,19.00173L16,17.001726C16,15.344874,14.656856,14.001727,12.999999,14.001727L5,14.001727C3.3431456,14.001727,2,15.344874,2,17.001726L2,19.00173C2,19.554012,1.5522848,20.001728,1.0000001,20.001728C0.44771528,20.001728,9.2296787e-8,19.554012,8.7029804e-8,19.00173L8.7029804e-8,17.001726C-0.00024717138,15.67555,0.52637488,14.403599,1.4639999,13.465727ZM9,2.0017271C7.3425736,2.0009172,5.9985352,3.3443,5.9985352,5.0017266C5.9985352,6.659153,7.3425736,8.0025368,9,8.0017271C10.65645,8.0011549,11.998965,6.6581755,11.998965,5.0017266C11.998965,3.3452761,10.65645,2.0022984,9,2.0017271ZM4,5.0017276C3.9990458,2.239629,6.2379022,0,9,0C11.762098,4.5776369e-7,14.000955,2.2396288,14.000001,5.0017276C13.999046,7.7624774,11.76075,10,9,10C6.2392492,10,4.0009522,7.7624764,4,5.0017276ZM19.032001,12.881726C19.170187,12.347202,19.715406,12.025799,20.25,12.163727C22.456068,12.733329,23.998072,14.722309,24,17.000727L24,19.00173C24,19.554012,23.552286,20.001728,22.999998,20.001728C22.447716,20.001728,22,19.554012,22,19.00173L22,17.001726C21.9984,15.634871,21.073362,14.441781,19.75,14.099727C19.215473,13.961544,18.894068,13.416318,19.032001,12.881726ZM15.030999,0.88372719C15.168303,0.34888574,15.713121,0.026560364,16.247999,0.16372719C18.459915,0.73054236,20.006828,2.7238417,20.006828,5.0072269C20.006828,7.2906122,18.459915,9.2839117,16.247999,9.850728C15.712836,9.9876938,15.167967,9.6648912,15.030999,9.1297274C14.894034,8.5945635,15.216836,8.0496941,15.751999,7.9127274C17.078959,7.5724969,18.006907,6.3766088,18.006907,5.0067272C18.006907,3.6368456,17.078959,2.4409573,15.751999,2.1007271C15.217158,1.9634228,14.894834,1.4186039,15.032,0.88372719L15.030999,0.88372719Z" fill="#333333" fill-opacity="1" style="mix-blend-mode:passthrough"/></g></svg>