<svg xmlns="http://www.w3.org/2000/svg" xmlns:xlink="http://www.w3.org/1999/xlink" fill="none" version="1.1" width="47" height="18" viewBox="0 0 47 18"><g><rect x="0" y="0" width="47" height="18" rx="9" fill="#FFF1E3" fill-opacity="1"/><g><path d="M11.8599999,5.720000300000001C10.77,5.720000300000001,9.91,6.0700002,9.29,6.79C8.69,7.4700003,8.39999998,8.3499999,8.39999998,9.440000099999999C8.39999998,10.5200005,8.69,11.3999996,9.29,12.08C9.91,12.78,10.77,13.14,11.8599999,13.14C12.940000099999999,13.14,13.7999997,12.79,14.429999800000001,12.09C15.029999700000001,11.4099998,15.3299999,10.5299997,15.3299999,9.440000099999999C15.3299999,8.3400002,15.029999700000001,7.4500003,14.429999800000001,6.7800002C13.7999997,6.0700002,12.940000099999999,5.720000300000001,11.8599999,5.720000300000001ZM11.8599999,6.6800003C12.6199999,6.6800003,13.21,6.9200001,13.6199999,7.4200001C14.02,7.9100003,14.23,8.5799999,14.23,9.440000099999999C14.23,10.29,14.02,10.96,13.6199999,11.4400005C13.21,11.9300003,12.6199999,12.18,11.8599999,12.18C11.0999999,12.18,10.51,11.9200001,10.0899999,11.4200001C9.6899999,10.9300003,9.49,10.2700005,9.49,9.440000099999999C9.49,8.5999999,9.6899999,7.9400001,10.0899999,7.4500003C10.51,6.9300003,11.0999999,6.6800003,11.8599999,6.6800003ZM15.7800002,7.8299999L17.529999699999998,13L18.509999999999998,13L19.59,9.1300001L20.67,13L21.65,13L23.4,7.8299999L22.23,7.8299999L21.139999,11.7399998L20.08,7.8299999L19.1,7.8299999L18.04,11.7399998L16.9499998,7.8299999L15.7800002,7.8299999ZM26.67,7.6900001C26.35,7.6900001,26.059999,7.75,25.799999,7.8900003C25.539999,8.02,25.309999,8.21,25.110001,8.470000299999999L25.110001,7.8299999L24.049999,7.8299999L24.049999,13L25.110001,13L25.110001,9.8900003C25.15,9.470000299999999,25.299999,9.1400003,25.539999,8.9000001C25.76,8.6800003,26.029999,8.5799999,26.33,8.5799999C27.129999,8.5799999,27.539999,9.02,27.539999,9.9000001L27.539999,13L28.6,13L28.6,9.8100004C28.6,8.3899999,27.950001,7.6900001,26.67,7.6900001ZM32,7.6900001C31.24,7.6900001,30.629999,7.9500003,30.189999,8.48C29.73,9,29.509998,9.6400003,29.509998,10.4099998C29.509998,11.2600002,29.75,11.9300003,30.23,12.43C30.669998,12.9,31.279999,13.14,32.039999,13.14C32.730000000000004,13.14,33.299999,12.94,33.75,12.55C34.109999,12.23,34.34,11.8199997,34.459998999999996,11.3400002L33.4,11.3400002C33.259997999999996,11.6400003,33.109999,11.8699999,32.929998,12.01C32.699999,12.18,32.4,12.27,32.029999000000004,12.27C31.609999,12.27,31.279999,12.13,31.039999,11.8699999C30.799999,11.6000004,30.669998,11.21,30.629999,10.71L34.549999,10.71C34.539999,9.79,34.329998,9.070000199999999,33.929998,8.5500002C33.489998,7.9700003,32.839998,7.6900001,32,7.6900001ZM32.029999000000004,8.559999900000001C32.869999,8.559999900000001,33.34,9.0100002,33.439999,9.9099998L30.65,9.9099998C30.709999,9.470000299999999,30.859999,9.1400003,31.08,8.9100003C31.32,8.6700001,31.629999,8.559999900000001,32.029999000000004,8.559999900000001ZM37.849998,7.6900001C37.529999000000004,7.6900001,37.249998000000005,7.7800002,37.009997999999996,7.98C36.809998,8.1199999,36.639999,8.3299999,36.509997999999996,8.6100001L36.509997999999996,7.8299999L35.449999,7.8299999L35.449999,13L36.509997999999996,13L36.509997999999996,10.2600002C36.509997999999996,9.8100004,36.639999,9.440000099999999,36.909998,9.1599998C37.159998,8.9000001,37.449999,8.77,37.769999,8.77C38.009997999999996,8.77,38.259997999999996,8.8000002,38.519999,8.8800001L38.519999,7.8200002C38.339998,7.73,38.109999,7.6900001,37.849998,7.6900001Z" fill="#F99C12" fill-opacity="1"/></g></g></svg>