<?xml version="1.0" standalone="no"?><!DOCTYPE svg PUBLIC "-//W3C//DTD SVG 1.1//EN" "http://www.w3.org/Graphics/SVG/1.1/DTD/svg11.dtd"><svg t="1763802539537" class="icon" viewBox="0 0 1024 1024" version="1.1" xmlns="http://www.w3.org/2000/svg" p-id="8566" xmlns:xlink="http://www.w3.org/1999/xlink" width="200" height="200"><path d="M706.56 358.4v-15.36a189.44 189.44 0 1 0-378.88 0v15.36a112.128 112.128 0 0 0-102.4 112.64v215.04a113.208889 113.208889 0 0 0 112.64 112.64h348.16a113.152 113.152 0 0 0 112.64-112.64V471.04a112.64 112.64 0 0 0-92.16-112.64z m-66.56 168.391111a36.864 36.864 0 1 1-73.216 0 36.864 36.864 0 1 1 73.216 0zM413.184 343.04a103.936 103.936 0 0 1 207.872 0v15.36H413.184v-15.36z m116.224 163.84a47.104 47.104 0 1 1-48.128-46.08 46.592 46.592 0 0 1 48.128 46.08z m-45.568 163.84c-57.856 0-102.4-20.48-102.4-46.08 0-25.6 47.104-45.624889 104.96-45.624889s104.96 20.48 104.96 45.568c0 25.088-49.664 46.08-107.52 46.08z m111.616-8.248889h-6.656a56.32 56.32 0 0 0 14.848-16.384 51.2 51.2 0 0 0 5.632-21.504 48.128 48.128 0 0 0-17.92-35.84h4.608c42.496 0 76.8 16.384 76.8 36.864 0 20.48-34.816 36.864-77.312 36.864z" p-id="8567"></path></svg>