<svg xmlns="http://www.w3.org/2000/svg" xmlns:xlink="http://www.w3.org/1999/xlink" fill="none" version="1.1" width="26" height="26" viewBox="0 0 26 26"><defs><clipPath id="master_svg0_673_38826"><rect x="0" y="0" width="26" height="26" rx="0"/></clipPath></defs><g clip-path="url(#master_svg0_673_38826)"><g><path d="M5.7531738,24L20.246826,24C23.424227,24,26,21.426201,26,18.251257L26,7.7487435C25.996038,4.575442300000001,23.422573,2.0039590672,20.246815,2L5.7531838,2C2.575784,2,0,4.5738006,0,7.7487435L0,18.251257C0,21.426201,2.5757742,24,5.7531738,24ZM5.9293289,21.999998C3.7592137,22.000002,2,20.251833,2,18.095356L2.0000088,7.9046516C2.0000093,5.748174000000001,3.7592235,4,5.9293385,4L20.070662,4C22.240776,4,23.999994,5.748174199999999,23.999992,7.9046516L24,18.095356C24.000002,20.251833,22.240788,22.000002,20.070671,21.999998L5.9293289,21.999998Z" fill-rule="evenodd" fill="#FFFFFF" fill-opacity="1" style="mix-blend-mode:passthrough"/></g><g><path d="M15.0000011444089,3L17,3L17.0000043,23L15,23L15.0000011444089,3Z" fill="#FFFFFF" fill-opacity="1" style="mix-blend-mode:passthrough"/></g></g></svg>