<svg xmlns="http://www.w3.org/2000/svg" xmlns:xlink="http://www.w3.org/1999/xlink" fill="none" version="1.1" width="26" height="26" viewBox="0 0 26 26"><g><g></g><g><g><path d="M0,18.38294L0,7.6170592Q0,5.2903972,1.6451986,3.6451986Q3.2903972,2,5.6170592,2L20.38294,2Q22.709602,2,24.354803,3.6451985000000002Q26,5.2903956999999995,26,7.6170592L26,18.38294Q26,20.709602,24.354803,22.354801Q22.709602,24,20.38294,24L5.6170592,24Q3.2903984,24,1.6451985,22.354801Q0,20.709602,0,18.38294ZM16.369354,4L5.6170592,4Q4.118824,4,3.059412,5.059412Q2,6.118824,2,7.6170592L2,18.38294Q2,19.881176,3.059412,20.940588Q4.1188245,22,5.6170592,22L16.369354,22L16.369354,4ZM18.369354,22L20.38294,22Q21.881176,22,22.940588,20.940588Q24,19.881176,24,18.38294L24,7.6170592Q24,6.118825,22.940588,5.059412Q21.881176,4,20.38294,4L18.369354,4L18.369354,22Z" fill-rule="evenodd" fill="#FFFFFF" fill-opacity="1" style="mix-blend-mode:passthrough"/></g></g></g></svg>