<svg xmlns="http://www.w3.org/2000/svg" xmlns:xlink="http://www.w3.org/1999/xlink" fill="none" version="1.1" width="26" height="26" viewBox="0 0 26 26"><defs><clipPath id="master_svg0_673_38826"><rect x="0" y="0" width="26" height="26" rx="0"/></clipPath></defs><g clip-path="url(#master_svg0_673_38826)"><g><path d="M20.246826,24L5.7531738,24C2.5757742,24,1.18702e-7,21.426201,0,18.251257L0,7.7487435C-2.37404e-7,4.5738006,2.575784,2.00000012335464,5.7531838,2L20.246815,2C23.422573,2.0039590672,25.996038,4.575442300000001,26,7.7487435L26,18.251257C26,21.426201,23.424227,24,20.246826,24ZM5.7531838,3.7246193C3.5290039,3.7246189999999997,1.7259617,5.526282999999999,1.7259612,7.7487435L1.7259521,18.251257C1.7259526,20.473717,3.5289938,22.275375,5.7531738,22.275373L20.246826,22.275373C22.471006,22.275375,24.27405,20.473717,24.274048,18.251257L24.274038,7.7487435C24.27404,5.526283299999999,22.470995,3.7246197,20.246815,3.7246193L5.7531838,3.7246193Z" fill="#333333" fill-opacity="1" style="mix-blend-mode:passthrough"/></g><g><path d="M15.113221206665,2.5624465942382812L16.84655391484375,2.5624465942382812L16.84655761484375,23.18289159423828L15.11322021484375,23.18289159423828L15.113221206665,2.5624465942382812Z" fill="#333333" fill-opacity="1" style="mix-blend-mode:passthrough"/></g></g></svg>