<svg xmlns="http://www.w3.org/2000/svg" xmlns:xlink="http://www.w3.org/1999/xlink" fill="none" version="1.1" width="24" height="24" viewBox="0 0 24 24"><defs><linearGradient x1="0" y1="0.122314453125" x2="0.5" y2="1" id="master_svg0_673_53484"><stop offset="0%" stop-color="#FEB45B" stop-opacity="1"/><stop offset="100%" stop-color="#F818E5" stop-opacity="1"/></linearGradient><clipPath id="master_svg1_673_62668"><rect x="5" y="5" width="14" height="14" rx="0"/></clipPath><linearGradient x1="0.09156017750501633" y1="0" x2="0.5695338931357623" y2="1.0905929433634285" id="master_svg2_673_53752"><stop offset="0%" stop-color="#FEA46A" stop-opacity="1"/><stop offset="100%" stop-color="#F81FDF" stop-opacity="1"/></linearGradient></defs><g><g><path d="M24,12Q24,12.294583,23.985544,12.588813Q23.97109,12.883041,23.942217,13.176207Q23.913342,13.469372,23.870117,13.760765Q23.826893,14.05216,23.769421,14.341084Q23.71195,14.630007,23.640373,14.915763Q23.568794,15.201517,23.483284,15.483417Q23.39777,15.765314,23.298527,16.042677Q23.199284,16.32004,23.086552,16.592199Q22.97382,16.864359,22.84787,17.130661Q22.72192,17.396961,22.583054,17.656761Q22.444187,17.916561,22.29274,18.169233Q22.141294,18.421906,21.977633,18.666842Q21.813971,18.911779,21.638489,19.14839Q21.463005,19.385002,21.276125,19.612719Q21.089245,19.840433,20.891415,20.058704Q20.693584,20.276978,20.485281,20.485279Q20.276979,20.693581,20.058708,20.891413Q19.840437,21.089243,19.612722,21.276125Q19.385006,21.463005,19.148394,21.638487Q18.911781,21.813971,18.666843,21.977633Q18.421906,22.141294,18.169233,22.292742Q17.916561,22.444187,17.656763,22.583054Q17.396961,22.72192,17.130661,22.84787Q16.864361,22.97382,16.592201,23.086552Q16.320042,23.199284,16.042679,23.298527Q15.765315,23.39777,15.483418,23.483284Q15.201518,23.568794,14.915762,23.640373Q14.630007,23.71195,14.341084,23.769421Q14.05216,23.826893,13.760766,23.870115Q13.469372,23.913342,13.176207,23.942217Q12.883041,23.97109,12.588812,23.985546Q12.294583,24,12,24Q11.705416,24,11.411186,23.985544Q11.116959,23.97109,10.823793,23.942217Q10.530628,23.913342,10.239233,23.870117Q9.9478378,23.826893,9.6589146,23.769421Q9.3699913,23.71195,9.0842361,23.640373Q8.7984819,23.568794,8.5165834,23.483284Q8.234684,23.39777,7.9573212,23.298527Q7.6799579,23.199284,7.4077983,23.086552Q7.1356392,22.97382,6.8693385,22.84787Q6.6030383,22.72192,6.3432388,22.583054Q6.0834394,22.444187,5.8307667,22.29274Q5.578094,22.141294,5.3331566,21.977633Q5.0882196,21.813971,4.8516078,21.638489Q4.614996,21.463005,4.3872805,21.276125Q4.159564,21.089245,3.9412923,20.891415Q3.7230206,20.693584,3.5147185,20.485281Q3.3064165,20.276979,3.1085865,20.058708Q2.9107563,19.840437,2.7238746,19.612722Q2.5369925,19.385006,2.3615096,19.148394Q2.1860261,18.911781,2.0223644,18.666843Q1.8587027,18.421906,1.7072564,18.169233Q1.5558105,17.916561,1.4169447,17.656763Q1.278079,17.396961,1.1521285,17.130661Q1.0261778,16.864361,0.91344553,16.592201Q0.8007133,16.320042,0.70147121,16.042679Q0.602229,15.765315,0.51671594,15.483418Q0.43120289,15.201518,0.35962492,14.915762Q0.28804699,14.630007,0.2305766,14.341084Q0.17310622,14.05216,0.12988187,13.760766Q0.086657502,13.469372,0.057783276,13.176207Q0.028909048,12.883041,0.014454524,12.588812Q0,12.294583,0,12Q0,11.705416,0.014454524,11.411186Q0.028909048,11.116959,0.057783276,10.823793Q0.086657502,10.530628,0.12988186,10.239233Q0.17310622,9.9478378,0.2305766,9.6589146Q0.28804699,9.3699913,0.35962492,9.0842361Q0.43120289,8.7984819,0.51671594,8.5165834Q0.602229,8.234684,0.70147115,7.9573212Q0.8007133,7.6799579,0.91344553,7.4077983Q1.0261778,7.1356392,1.1521285,6.8693385Q1.2780792,6.6030383,1.4169449,6.3432388Q1.5558106,6.0834394,1.7072568,5.8307667Q1.8587029,5.578094,2.0223646,5.3331566Q2.1860266,5.0882196,2.3615096,4.8516078Q2.5369928,4.614996,2.7238746,4.3872805Q2.9107563,4.159564,3.1085863,3.9412923Q3.3064165,3.7230206,3.5147185,3.5147185Q3.7230206,3.3064165,3.9412923,3.1085865Q4.159564,2.9107563,4.3872805,2.7238746Q4.614996,2.5369925,4.8516078,2.3615096Q5.0882196,2.1860261,5.3331566,2.0223644Q5.578094,1.8587027,5.8307667,1.7072564Q6.0834398,1.5558105,6.3432398,1.4169447Q6.6030388,1.278079,6.869339,1.1521285Q7.1356392,1.0261778,7.4077983,0.91344553Q7.6799579,0.8007133,7.9573212,0.70147121Q8.234684,0.602229,8.5165834,0.51671594Q8.7984819,0.43120289,9.0842371,0.35962492Q9.3699923,0.28804699,9.6589155,0.2305766Q9.9478378,0.17310622,10.239233,0.12988187Q10.530628,0.086657502,10.823793,0.057783276Q11.116959,0.028909048,11.411186,0.014454524Q11.705416,0,12,0Q12.294583,0,12.588813,0.014454524Q12.883041,0.028909048,13.176207,0.057783276Q13.469372,0.086657502,13.760765,0.12988186Q14.05216,0.17310622,14.341084,0.2305766Q14.630007,0.28804699,14.915763,0.35962492Q15.201517,0.43120289,15.483417,0.51671594Q15.765314,0.602229,16.042677,0.70147115Q16.32004,0.8007133,16.592199,0.91344553Q16.864359,1.0261778,17.130661,1.1521285Q17.396961,1.2780792,17.656761,1.4169449Q17.916561,1.5558106,18.169233,1.7072568Q18.421906,1.8587029,18.666842,2.0223646Q18.911779,2.1860266,19.14839,2.3615096Q19.385002,2.5369928,19.612719,2.7238746Q19.840433,2.9107563,20.058704,3.1085863Q20.276978,3.3064165,20.485279,3.5147185Q20.693581,3.7230206,20.891413,3.9412923Q21.089243,4.159564,21.276125,4.3872805Q21.463005,4.614996,21.638487,4.8516078Q21.813971,5.0882196,21.977633,5.3331566Q22.141294,5.578094,22.292742,5.8307667Q22.444187,6.0834398,22.583054,6.3432398Q22.72192,6.6030388,22.84787,6.869339Q22.97382,7.1356392,23.086552,7.4077983Q23.199284,7.6799579,23.298527,7.9573212Q23.39777,8.234684,23.483284,8.5165834Q23.568794,8.7984819,23.640373,9.0842371Q23.71195,9.3699923,23.769421,9.6589155Q23.826893,9.9478378,23.870115,10.239233Q23.913342,10.530628,23.942217,10.823793Q23.97109,11.116959,23.985546,11.411186Q24,11.705416,24,12ZM22.5,12Q22.5,11.742239,22.487352,11.48479Q22.474705,11.22734,22.44944,10.97082Q22.424175,10.7143,22.386354,10.45933Q22.348532,10.204359,22.298244,9.9515514Q22.247959,9.6987438,22.185329,9.4487076Q22.122698,9.1986723,22.047874,8.9520111Q21.973049,8.705349,21.886211,8.462656Q21.799374,8.2199631,21.700733,7.9818234Q21.602093,7.7436838,21.491888,7.5106711Q21.38168,7.2776585,21.260174,7.050334Q21.138664,6.8230095,21.006147,6.6019211Q20.873631,6.3808327,20.730427,6.1665125Q20.587223,5.9521923,20.433676,5.7451572Q20.280128,5.5381222,20.116608,5.338871Q19.953087,5.1396189,19.779984,4.9486303Q19.606884,4.7576427,19.42462,4.5753784Q19.242355,4.3931141,19.051369,4.2200127Q18.86038,4.0469112,18.661129,3.8833899Q18.461876,3.7198682,18.254841,3.5663204Q18.047806,3.4127727,17.833485,3.2695687Q17.619164,3.1263647,17.398075,2.9938493Q17.176987,2.8613338,16.949663,2.7398267Q16.722338,2.618319,16.489325,2.508112Q16.256313,2.3979053,16.018173,2.2992647Q15.780034,2.200624,15.53734,2.1137869Q15.294648,2.0269501,15.047987,1.9521264Q14.801325,1.8773024,14.55129,1.8146716Q14.301254,1.752041,14.048447,1.7017545Q13.795639,1.6514678,13.540668,1.6136465Q13.285698,1.5758252,13.02918,1.5505604Q12.77266,1.5252954,12.515211,1.5126476Q12.25776,1.5,12,1.5Q11.742239,1.5,11.48479,1.5126476Q11.22734,1.5252955,10.97082,1.5505605Q10.7143,1.5758255,10.45933,1.6136467Q10.204359,1.651468,9.9515514,1.7017546Q9.6987438,1.7520411,9.4487076,1.8146719Q9.1986723,1.8773024,8.9520111,1.9521264Q8.705349,2.0269501,8.462656,2.1137872Q8.2199631,2.200624,7.9818234,2.2992647Q7.7436838,2.3979053,7.5106711,2.508112Q7.2776585,2.618319,7.050334,2.7398264Q6.8230095,2.8613338,6.6019211,2.993849Q6.3808327,3.1263645,6.1665125,3.2695684Q5.9521923,3.4127727,5.7451572,3.5663202Q5.5381222,3.7198682,5.338871,3.8833899Q5.1396189,4.0469112,4.9486303,4.2200127Q4.7576427,4.3931141,4.5753784,4.5753784Q4.3931141,4.7576427,4.2200127,4.9486303Q4.0469112,5.1396189,3.8833899,5.3388705Q3.7198682,5.5381217,3.5663204,5.7451563Q3.4127727,5.9521918,3.2695687,6.166512Q3.1263647,6.3808322,2.9938493,6.6019206Q2.8613338,6.8230095,2.7398267,7.050334Q2.618319,7.2776585,2.508112,7.5106707Q2.3979053,7.7436838,2.2992647,7.9818234Q2.200624,8.2199631,2.1137869,8.462656Q2.0269501,8.705349,1.9521264,8.9520111Q1.8773024,9.1986723,1.8146716,9.4487076Q1.752041,9.6987438,1.7017545,9.9515514Q1.6514678,10.204359,1.6136465,10.45933Q1.5758252,10.7143,1.5505604,10.97082Q1.5252954,11.22734,1.5126476,11.484789Q1.5,11.742239,1.5,12Q1.5,12.25776,1.5126476,12.515211Q1.5252954,12.77266,1.5505604,13.02918Q1.5758252,13.285698,1.6136465,13.540668Q1.6514678,13.795639,1.7017543,14.048447Q1.7520409,14.301254,1.8146716,14.551291Q1.8773024,14.801327,1.9521264,15.047989Q2.0269501,15.294649,2.1137872,15.537343Q2.200624,15.780035,2.2992647,16.018175Q2.3979053,16.256315,2.508112,16.489328Q2.618319,16.72234,2.7398264,16.949665Q2.8613338,17.176989,2.993849,17.398077Q3.1263645,17.619164,3.2695684,17.833485Q3.4127727,18.047806,3.5663202,18.254841Q3.7198682,18.461876,3.8833899,18.661129Q4.0469112,18.86038,4.2200127,19.051369Q4.3931141,19.242355,4.5753784,19.42462Q4.7576427,19.606884,4.9486303,19.779985Q5.1396189,19.953087,5.3388705,20.11661Q5.5381217,20.28013,5.7451563,20.433678Q5.9521918,20.587225,6.166512,20.730429Q6.3808322,20.873634,6.6019206,21.006149Q6.8230095,21.138664,7.050334,21.260174Q7.2776585,21.38168,7.5106707,21.491886Q7.7436838,21.602093,7.9818234,21.700733Q8.2199631,21.799374,8.462656,21.886211Q8.705349,21.973049,8.9520111,22.047874Q9.1986723,22.122698,9.4487076,22.185328Q9.6987438,22.247959,9.9515514,22.298244Q10.204359,22.348532,10.45933,22.386353Q10.7143,22.424175,10.97082,22.44944Q11.22734,22.474705,11.484789,22.487352Q11.742239,22.5,12,22.5Q12.25776,22.5,12.515211,22.487352Q12.77266,22.474705,13.02918,22.44944Q13.285698,22.424175,13.540668,22.386354Q13.795639,22.348532,14.048447,22.298244Q14.301254,22.247959,14.551291,22.185329Q14.801327,22.122698,15.047989,22.047874Q15.294649,21.973049,15.537343,21.886211Q15.780035,21.799374,16.018175,21.700733Q16.256315,21.602093,16.489328,21.491888Q16.72234,21.38168,16.949665,21.260174Q17.176989,21.138664,17.398077,21.006147Q17.619164,20.873631,17.833485,20.730427Q18.047806,20.587223,18.254841,20.433676Q18.461876,20.280128,18.661129,20.116608Q18.86038,19.953087,19.051369,19.779984Q19.242355,19.606884,19.42462,19.42462Q19.606884,19.242355,19.779985,19.051369Q19.953087,18.86038,20.11661,18.661129Q20.28013,18.461876,20.433678,18.254841Q20.587225,18.047806,20.730429,17.833485Q20.873634,17.619164,21.006149,17.398075Q21.138664,17.176987,21.260174,16.949663Q21.38168,16.722338,21.491886,16.489325Q21.602093,16.256313,21.700733,16.018173Q21.799374,15.780034,21.886211,15.53734Q21.973049,15.294648,22.047874,15.047987Q22.122698,14.801325,22.185328,14.55129Q22.247959,14.301254,22.298244,14.048447Q22.348532,13.795639,22.386353,13.540668Q22.424175,13.285698,22.44944,13.02918Q22.474705,12.77266,22.487352,12.515211Q22.5,12.25776,22.5,12Z" fill="url(#master_svg0_673_53484)" fill-opacity="1"/></g><g clip-path="url(#master_svg1_673_62668)"><g><path d="M11.9796100015625,6.1396484375C10.3579435015625,6.1396484375,9.0442764015625,7.4463150375,9.0442764015625,9.0563151375L9.0442764015625,11.3896484375C9.0442764015625,13.0002312375,10.3585269015625,14.3063154375,11.9796100015625,14.3063154375C13.6012773015625,14.3063154375,14.915526901562501,13.0002317375,14.915526901562501,11.3896484375L14.915526901562501,9.0563151375C14.915526901562501,7.4463149375,13.601276401562501,6.13964803695677,11.9796100015625,6.1396484375ZM8.0899426915625,13.1297326375C7.9360371215625,13.085545037500001,7.7710317415625,13.102254437500001,7.6291093215625,13.1763987375C7.3477455545625,13.3375353375,7.2494629095625,13.6957335375,7.4091926295625,13.9778995375C8.2433595615625,15.4385662375,9.6754432015625,16.4162334375,11.4184432015625,16.607566437499997L11.415526901562501,17.2229824375C11.415526901562501,17.5449824375,11.6745262015625,17.8063174375,11.9988604015625,17.8063174375C12.3231945015625,17.8063174375,12.582194301562499,17.5449814375,12.582194301562499,17.2229824375L12.5798602015625,16.6046494375C14.2452784015625,16.4179834375,15.7432775015625,15.4543171375,16.5832777015625,14.0146498375C16.7502203015625,13.7433233375,16.6586504015625,13.3876342375,16.3814440015625,13.2306499375C16.1008625015625,13.0690660375,15.7368622015625,13.152483437499999,15.5741119015625,13.431315937499999C14.8289785015625,14.6979704375,13.4684296015625,15.4749183375,11.9988618015625,15.4729843375C10.5243123015625,15.4782180375,9.1610475015625,14.6894998375,8.4306108015625,13.4085669375C8.3591403015625,13.273619137499999,8.2363564415625,13.1731219375,8.0899426915625,13.1297326375Z" fill="url(#master_svg2_673_53752)" fill-opacity="1" style="mix-blend-mode:passthrough"/></g></g></g></svg>