<svg xmlns="http://www.w3.org/2000/svg" xmlns:xlink="http://www.w3.org/1999/xlink" fill="none" version="1.1" width="15" height="15" viewBox="0 0 15 15"><defs><clipPath id="master_svg0_673_38859"><rect x="0" y="0" width="15" height="15" rx="0"/></clipPath></defs><g clip-path="url(#master_svg0_673_38859)"><g><path d="M0.72745883,3.5860651C0.32569423,3.5860647,0,3.2310122,0,2.79303235C0,2.35505241,0.32569444,1.99999963697857,0.72745883,2L10.91188,2C11.313448,2.00030275987,11.638838,2.3552666,11.638838,2.79303265C11.638838,3.2307984999999997,11.313448,3.5857626,10.91188,3.5860647L0.72745883,3.5860651ZM0.72745883,7.5512271C0.32597196,7.5507998,0.00071046437,7.1958718,0.00071046437,6.7581949C0.00071046437,6.3205171,0.32597214,5.9655892999999995,0.72745883,5.9651625L10.91188,5.9651625C11.313366,5.965590499999999,11.638628,6.3205185,11.638628,6.7581949C11.638628,7.1958718,11.313366,7.5507998,10.91188,7.5512271L0.72745883,7.5512271ZM0.72745883,11.5163898C0.32569444,11.5163898,0,11.1613379,0,10.7233582C0,10.2853785,0.32569444,9.930325,0.72745883,9.930325L5.8196697,9.930325C6.2214336,9.930325,6.5471282,10.2853785,6.5471282,10.7233582C6.5471282,11.1613379,6.2214336,11.5163898,5.8196697,11.5163898L0.72745883,11.5163898ZM9.1368828,10.4029732L10.68055,12.085789L13.767154,8.7209506C14.052593,8.420403,14.506323,8.424696,14.786933,8.7305999C15.067541,9.0365024,15.071479,9.5311308,14.795784,9.842298L11.194862,13.76781C10.91079,14.077396,10.450308,14.077396,10.166236,13.76781L8.1082554,11.5243216C7.8242078,11.2144518,7.8243713,10.7122278,8.1086197,10.4025764C8.3928671,10.0929251,8.8535624,10.0931025,9.1376095,10.4029732L9.1368828,10.4029732Z" fill="#666666" fill-opacity="1" style="mix-blend-mode:passthrough"/></g></g></svg>